<?xml version="1.0" encoding="UTF-8" standalone="no"?>
<!-- Created with Inkscape (http://www.inkscape.org/) -->

<svg
   xmlns:dc="http://purl.org/dc/elements/1.1/"
   xmlns:cc="http://creativecommons.org/ns#"
   xmlns:rdf="http://www.w3.org/1999/02/22-rdf-syntax-ns#"
   xmlns:svg="http://www.w3.org/2000/svg"
   xmlns="http://www.w3.org/2000/svg"
   xmlns:sodipodi="http://sodipodi.sourceforge.net/DTD/sodipodi-0.dtd"
   xmlns:inkscape="http://www.inkscape.org/namespaces/inkscape"
   id="svg3164"
   version="1.1"
   inkscape:version="0.48.4 r9939"
   width="16"
   height="16"
   sodipodi:docname="twitch-ubuntu.svg">
  <metadata
     id="metadata3170">
    <rdf:RDF>
      <cc:Work
         rdf:about="">
        <dc:format>image/svg+xml</dc:format>
        <dc:type
           rdf:resource="http://purl.org/dc/dcmitype/StillImage" />
        <dc:title />
      </cc:Work>
    </rdf:RDF>
  </metadata>
  <defs
     id="defs3168" />
  <sodipodi:namedview
     pagecolor="#ffffff"
     bordercolor="#666666"
     borderopacity="1"
     objecttolerance="10"
     gridtolerance="10"
     guidetolerance="10"
     inkscape:pageopacity="0"
     inkscape:pageshadow="2"
     inkscape:window-width="575"
     inkscape:window-height="456"
     id="namedview3166"
     showgrid="false"
     inkscape:zoom="16"
     inkscape:cx="9.9829309"
     inkscape:cy="8.0117025"
     inkscape:window-x="65"
     inkscape:window-y="24"
     inkscape:window-maximized="1"
     inkscape:current-layer="svg3164"
     showguides="true"
     inkscape:guide-bbox="true">
    <sodipodi:guide
       orientation="1,0"
       position="0.99436891,16.241359"
       id="guide3079" />
    <sodipodi:guide
       orientation="1,0"
       position="15.003922,18.119611"
       id="guide3081" />
    <sodipodi:guide
       orientation="0,1"
       position="9.6122328,15.003922"
       id="guide3083" />
    <sodipodi:guide
       orientation="0,1"
       position="4.7950679,0.99436891"
       id="guide3085" />
  </sodipodi:namedview>
  <path
     style="fill:#d9d6ce;fill-opacity:1"
     d="M 3.0614037,2.03125 2.6578759,3.0266185 2.28125,3.9950852 l 0,4.1966886 0,4.0884132 1.4796018,0 1.4796017,0 0,0.915331 0,0.807056 0.753252,0 0.7532517,0 0.8070556,-0.807056 0.8070555,-0.915331 1.1298777,0 1.156779,0 1.533406,-1.533406 1.533406,-1.4251294 0,-3.6317498 0,-3.6586518 -5.3265668,0 z m 2.8165516,2.5825776 1.0512138,0 0.5649388,0 0,1.9100315 0,2.7808324 -0.5649388,0 -1.0512138,0 0,-2.7808324 z m 3.4972406,0 1.0512141,0 0.591841,0 0,1.9100315 0,2.7808324 -0.591841,0 -1.0512141,0 0,-2.7808324 z"
     id="path3194"
     inkscape:connector-curvature="0"
     sodipodi:nodetypes="ccccccccccccccccccccccccccccccccccccccc" />
</svg>
