<?xml version="1.0" encoding="UTF-8" standalone="no"?>
<!-- Created with Inkscape (http://www.inkscape.org/) -->

<svg
   xmlns:dc="http://purl.org/dc/elements/1.1/"
   xmlns:cc="http://creativecommons.org/ns#"
   xmlns:rdf="http://www.w3.org/1999/02/22-rdf-syntax-ns#"
   xmlns:svg="http://www.w3.org/2000/svg"
   xmlns="http://www.w3.org/2000/svg"
   xmlns:sodipodi="http://sodipodi.sourceforge.net/DTD/sodipodi-0.dtd"
   xmlns:inkscape="http://www.inkscape.org/namespaces/inkscape"
   id="svg3164"
   version="1.1"
   inkscape:version="0.48.4 r9939"
   width="16"
   height="16"
   sodipodi:docname="twitch-elementary.svg">
  <metadata
     id="metadata3170">
    <rdf:RDF>
      <cc:Work
         rdf:about="">
        <dc:format>image/svg+xml</dc:format>
        <dc:type
           rdf:resource="http://purl.org/dc/dcmitype/StillImage" />
        <dc:title />
      </cc:Work>
    </rdf:RDF>
  </metadata>
  <defs
     id="defs3168" />
  <sodipodi:namedview
     pagecolor="#ffffff"
     bordercolor="#666666"
     borderopacity="1"
     objecttolerance="10"
     gridtolerance="10"
     guidetolerance="10"
     inkscape:pageopacity="0"
     inkscape:pageshadow="2"
     inkscape:window-width="1920"
     inkscape:window-height="1145"
     id="namedview3166"
     showgrid="false"
     inkscape:zoom="45.254834"
     inkscape:cx="6.9868945"
     inkscape:cy="7.0873276"
     inkscape:window-x="0"
     inkscape:window-y="30"
     inkscape:window-maximized="1"
     inkscape:current-layer="svg3164"
     showguides="true"
     inkscape:guide-bbox="true">
    <sodipodi:guide
       orientation="1,0"
       position="0.99436891,16.241359"
       id="guide3079" />
    <sodipodi:guide
       orientation="1,0"
       position="15.003922,18.119611"
       id="guide3081" />
    <sodipodi:guide
       orientation="0,1"
       position="9.6122328,15.003922"
       id="guide3083" />
    <sodipodi:guide
       orientation="0,1"
       position="4.7950679,0.99436891"
       id="guide3085" />
  </sodipodi:namedview>
  <path
     style="fill:#ffffff"
     d="M 1.9240441,0.78125 1.4299265,2.0000735 0.96875,3.1859559 l 0,5.1388235 0,5.0062406 1.8117647,0 1.8117647,0 0,1.120818 0,0.988236 0.922353,0 0.9223529,0 0.9882353,-0.988236 0.9882353,-1.120818 1.3835294,0 1.4164707,0 1.877647,-1.877647 1.877647,-1.7450642 0,-4.4470588 0,-4.48 -6.5223529,0 z m 3.4488529,3.1623529 1.2872058,0 0.6917647,0 0,2.3388236 0,3.4051148 -0.6917647,0 -1.2872058,0 0,-3.4051148 z m 4.2823529,0 1.2872061,0 0.724706,0 0,2.3388236 0,3.4051148 -0.724706,0 -1.2872061,0 0,-3.4051148 z"
     id="path3194"
     inkscape:connector-curvature="0"
     sodipodi:nodetypes="ccccccccccccccccccccccccccccccccccccccc" />
</svg>
